PathFileType	4	(X/Y/Z)	path1_08_0-572.trc
DataRate	CameraRate	NumFrames	NumMarkers	Units	OrigDataRate	OrigDataStartFrame	OrigNumFrames
30	30	4	22	m	30	0	572
Frame#	Time	Hip			RHip			RKnee			RAnkle			RBigToe			RSmallToe			RHeel			LHip			LKnee			LAnkle			LBigToe			LSmallToe			LHeel			Neck			Head			Nose			RShoulder			RElbow			RWrist			LShoulder			LElbow			LWrist		
		X1	Y1	Z1	X2	Y2	Z2	X3	Y3	Z3	X4	Y4	Z4	X5	Y5	Z5	X6	Y6	Z6	X7	Y7	Z7	X8	Y8	Z8	X9	Y9	Z9	X10	Y10	Z10	X11	Y11	Z11	X12	Y12	Z12	X13	Y13	Z13	X14	Y14	Z14	X15	Y15	Z15	X16	Y16	Z16	X17	Y17	Z17	X18	Y18	Z18	X19	Y19	Z19	X20	Y20	Z20	X21	Y21	Z21	X22	Y22	Z22
1	0.0333333333333333	2.4562648299282843	0.8355014016969442	0.9440124127287214	2.457162812392563	0.8081962400487737	0.8614844876505889	2.421017918371028	0.46796979926090815	0.8599573789797023	2.459405424924972	0.1003519820682301	0.8772490357394928	2.282182688305494	0.019738351254586894	0.8444836294371802	2.3338969552171456	0.02338116813746863	0.7927264753795356	2.505356193027801	0.03468903299605946	0.8947490102110405	2.4436322616141757	0.8003461260232593	1.0342158261551382	2.445484452079637	0.43371698206154596	1.064292258496387	2.464998976551669	0.09853362654839411	1.0268655963551876	2.313651354791631	0.003993445695584626	1.0722845952267646	2.335073105834189	0.03785072025068114	1.10774314659903	2.5156686539452364	0.04044216229495249	1.0198330140249328	2.438045276783365	1.4757758954069011	0.9657204560314228	2.397245220526124	1.7002057451453318	0.9843592034395277	2.3042675475172847	1.6009514291569076	0.9381161751838694	2.4888653695540723	1.3744247590287753	0.7965739675396688	2.5090184533527813	1.0863657810109488	0.7776674177036524	2.437069367333058	0.8391405359136993	0.7412724844367918	2.4674772909446667	1.3521099627219257	1.1116699530535858	2.5031018460121532	1.046387631145854	1.1329711283456174	2.480467041275138	0.8180470046969213	1.1404616711502311
2	0.0666666666666666	2.4574697763319064	0.8374103834799483	0.9459549938566784	2.4618082792306017	0.8085153676357822	0.8666085010449296	2.4212209797874635	0.4703885052850655	0.8607394573484668	2.4593774177841183	0.1052665256761391	0.8768102962374766	2.2820402669088398	0.0239166344073803	0.8460534272625964	2.3315236334137017	0.02392262105233681	0.7944306367748448	2.506136784940445	0.035481253160438965	0.8959217065856708	2.4482039638418445	0.8026343836950153	1.0350431424500746	2.4387136705852552	0.44379718359184245	1.0525195889554142	2.460644092933978	0.10445461508998802	1.0268086017715474	2.302598017665588	0.014463280795307674	1.0657094993544527	2.3367954646772313	0.03592352167053179	1.107428515075007	2.508756204190046	0.04067160817492535	1.021190914040294	2.429806366087764	1.4674096284883933	0.9603660262473335	2.3910467898097973	1.7065747606006518	0.9561259360247094	2.3025746135943685	1.6010843514690014	0.9377969182234066	2.4878382181670475	1.3744361907751672	0.7991587873162787	2.509623068666728	1.0817902047257697	0.7828413449734702	2.4466013160692586	0.8431817650132691	0.7415337391687479	2.464231005529941	1.3534100384131214	1.110894156864471	2.501331444566154	1.0535120690166988	1.1383449780613628	2.481751975569793	0.8244157937992946	1.1421664186773528
3	0.1	2.4584420284629824	0.8389455078446614	0.9475421222016911	2.465623722116426	0.8090190289025576	0.8708194412271377	2.4214363163323314	0.47235306313308056	0.8613697345600428	2.4593116670226434	0.10930163960710763	0.8765054958739669	2.2817355864409166	0.027507286097272692	0.8473979783991967	2.3294806599110505	0.024409054736397613	0.7958017814172041	2.5069013355858583	0.03611762007935365	0.8967714454627365	2.4517381016670705	0.8046762158928402	1.03586914047683	2.432432791737722	0.45248064135534943	1.0420545752400219	2.45689039299098	0.10935491830022714	1.0267623482295518	2.2935297819001916	0.023227627226924286	1.060544785214167	2.339846138991117	0.03370347808892396	1.1073999405655737	2.502976170421335	0.040915284189868055	1.02216895572305	2.4231272509263566	1.4606849692101977	0.9561603125247826	2.385334413649876	1.7114613454735779	0.9339028009322331	2.301129087282699	1.6011273749646966	0.9375158903091514	2.4867658201214025	1.3744257957326773	0.8010890509563453	2.5099492816428386	1.077977232138256	0.786888839363928	2.4541326111424935	0.8462779823346698	0.7418291444859931	2.461337875023665	1.3544944310681197	1.1103600041622372	2.4997113524522225	1.0594601550246188	1.1429018367013721	2.482665258977779	0.8297375104891163	1.143698382102802
4	0.1333333333333333	2.45911141342312	0.8399590283260635	0.9486211506851772	2.4682938292714898	0.8097389124000997	0.873693882346362	2.42170935529703	0.4736635134956463	0.8618069915047265	2.4592074109739284	0.11203127734486669	0.8764062653509576	2.281390494011205	0.03013059620657237	0.8483933167837343	2.3281049270916743	0.024773612905353765	0.7967130631647883	2.5075717783835416	0.03656176190714528	0.8972392611203278	2.453778221092483	0.8063231433730219	1.0366122448513422	2.4273497915266073	0.45874809513942894	1.034123767788846	2.454016203874164	0.11276966297504516	1.0267409885011687	2.2873628181978383	0.029505358509007384	1.057374375038513	2.3439980796948094	0.031373529817272136	1.1076734917362008	2.4988282274129734	0.04122622463474156	1.0226543781109765	2.4187102156189337	1.4563182930265002	0.9535684614133816	2.380801252484578	1.7145489346640292	0.9198767631644101	2.300057188929152	1.6010515728651291	0.9372072064858716	2.485655570378705	1.374376765057212	0.8020595144224625	2.5099016164112338	1.075380200313842	0.7893157940235466	2.4588778076589817	0.8480290556915281	0.742204357649516	2.459088177042244	1.3552956724084837	1.110098819894489	2.498479696664087	1.0632502357557898	1.1458471699387096	2.483072445121522	0.8333519403463815	1.1448636228913718
